PathFileType	4	(X/Y/Z)	Run_400 02
DataRate	CameraRate	NumFrames	NumMarkers	Units	OrigDataRate	OrigDataStartFrame	OrigNumFrames
100	100	6	42	mm	100	4	128
Frame#	Time	LASI			RASI			LPSI			RPSI			RTH1			RTH3			LTH1			LTH2			LTH3			RTB1			RTB2			LTB1			LTB2			RCAL			RTOE			LCAL			LTOE			LACR			RACR			CLAV			C7			RUA1			RUA2			RUA3			RLEL			RMEL			LUA1			LUA2			LUA3			LLEL			LMEL			RFAsuperior			RFAradius			RFAulna			LFAsuperior			LFAradius			LFAulna			RTH2			RTB3			RMT5			LMT5			LTB3		
		X1	Y1	Z1	X2	Y2	Z2	X3	Y3	Z3	X4	Y4	Z4	X5	Y5	Z5	X6	Y6	Z6	X7	Y7	Z7	X8	Y8	Z8	X9	Y9	Z9	X10	Y10	Z10	X11	Y11	Z11	X12	Y12	Z12	X13	Y13	Z13	X14	Y14	Z14	X15	Y15	Z15	X16	Y16	Z16	X17	Y17	Z17	X18	Y18	Z18	X19	Y19	Z19	X20	Y20	Z20	X21	Y21	Z21	X22	Y22	Z22	X23	Y23	Z23	X24	Y24	Z24	X25	Y25	Z25	X26	Y26	Z26	X27	Y27	Z27	X28	Y28	Z28	X29	Y29	Z29	X30	Y30	Z30	X31	Y31	Z31	X32	Y32	Z32	X33	Y33	Z33	X34	Y34	Z34	X35	Y35	Z35	X36	Y36	Z36	X37	Y37	Z37	X38	Y38	Z38	X39	Y39	Z39	X40	Y40	Z40	X41	Y41	Z41	X42	Y42	Z42	

4	  0.040000	780.043008	995.147184	-475.029588	790.344591	1016.232503	-222.745070	606.123956	1085.469408	-380.012574	605.740205	1083.580141	-296.348213	777.410371	895.837007	-158.700892	898.991265	698.669025	-183.897205	688.150343	886.497254	-525.379128	731.084319	759.308269	-504.657389	619.235695	641.978257	-486.888481	899.403742	494.417263	-250.853743	790.411621	468.458317	-199.069835	592.759189	408.937815	-415.546652	494.509137	372.382183	-467.335507	542.520376	397.032136	-277.839282	692.794578	218.408058	-275.011151	281.426203	181.476800	-345.875999	473.449790	 66.931747	-368.508077	802.438857	1523.553679	-512.011160	741.183564	1523.159191	-173.232945	833.329824	1479.794118	-307.184690	706.979621	1556.809882	-368.966353	652.634763	1441.171515	-97.881169	564.557833	1390.804571	-136.739847	576.984059	1348.960094	-71.187225	525.652868	1267.331606	-43.825534	499.454360	1259.102786	-120.155296	791.118191	1426.111725	-615.610075	734.679878	1338.240177	-627.995468	797.555340	1319.999421	-673.551257	820.638595	1241.673993	-711.811418	764.178191	1193.826304	-681.642836	547.184547	1187.983230	-36.463490	675.082081	1032.567806	-80.044712	608.695494	1008.571412	-70.414635	909.363385	1211.333964	-626.194762	962.835017	1244.992513	-483.745056	970.176867	1178.880810	-499.555171	901.962420	819.668874	-178.748337	729.668193	386.185097	-258.773238	649.194470	219.791354	-189.646582	422.709345	 50.814510	-443.975368	469.073834	245.523678	-388.725085	
5	  0.050000	782.339461	1001.809415	-476.307582	792.239671	1026.503273	-224.356143	609.519185	1093.251948	-382.007460	609.230604	1091.443114	-297.819358	779.308029	908.565250	-158.360279	901.645029	709.498669	-184.192292	687.724938	893.517477	-526.001108	723.744352	765.128115	-505.315998	605.447969	653.610628	-487.880953	916.590428	498.091511	-248.505076	809.799661	461.886893	-198.267472	570.718923	421.278776	-419.659319	471.109746	387.491471	-470.850606	572.832611	362.655849	-280.493011	741.442089	202.153318	-270.776746	262.949785	202.717351	-351.165287	438.245129	 67.287243	-369.530212	804.383159	1533.333597	-508.628941	739.398638	1531.939829	-172.084238	832.478147	1489.536292	-305.072946	707.442388	1565.185662	-367.654920	648.039778	1452.954879	-98.149670	561.785357	1402.289242	-139.491770	571.749039	1362.477901	-71.522995	518.933830	1281.246010	-44.834540	493.513373	1273.252746	-121.689649	796.299357	1435.907493	-612.546171	740.494676	1348.165623	-626.180484	804.517566	1329.469465	-668.900987	828.774863	1251.613331	-708.000887	773.181242	1202.811053	-677.633796	540.026989	1201.826141	-37.095332	667.408210	1045.894551	-79.710134	601.021627	1021.920120	-70.666313	916.781719	1226.671049	-620.125566	965.879962	1266.221841	-477.492816	976.442296	1199.989123	-491.535828	904.135984	828.371884	-180.327573	759.455408	372.527196	-257.428394	696.503772	200.283988	-186.600573	386.143216	 53.143869	-444.118527	448.125894	257.424896	-395.778729	
6	  0.060000	784.616725	1007.976475	-477.119662	794.218168	1036.121911	-225.781663	613.178302	1100.631786	-383.563873	612.603146	1099.054221	-299.397123	781.505232	920.156442	-158.620501	902.780791	718.447931	-184.547752	687.110396	900.329001	-526.943880	716.567902	770.976269	-506.348583	592.617023	665.158976	-488.679755	932.509717	500.823080	-246.450087	829.078377	454.178277	-197.585965	550.741468	433.439433	-423.416334	450.033893	402.302952	-474.178077	605.031026	328.539337	-282.485518	790.019533	186.950810	-267.207653	246.507117	224.971204	-356.994370	405.410841	 69.188331	-371.626144	805.953434	1542.732952	-504.897111	737.802692	1540.234359	-170.988433	831.619334	1498.751499	-302.840367	707.840161	1573.244664	-366.176488	644.210655	1463.805771	-98.511336	559.166252	1413.984298	-141.425670	567.063726	1375.331427	-71.809975	512.742988	1294.564946	-45.712212	488.256202	1286.763398	-123.211200	800.977847	1445.721859	-609.520266	745.581727	1358.172018	-624.443788	810.663624	1339.165539	-664.921262	836.166403	1261.632566	-704.655055	781.346089	1211.924462	-674.316272	533.308304	1215.036595	-37.633536	660.608454	1058.551300	-79.418838	594.234455	1034.704440	-70.786729	923.011030	1241.719123	-614.555068	967.612183	1286.377880	-471.721442	981.309897	1220.166836	-484.161026	905.598604	836.412802	-180.508504	789.402939	358.823007	-256.152575	744.237263	181.459244	-184.285442	350.741346	 57.444524	-444.485804	428.367574	269.590878	-402.360178	
7	  0.070000	786.838828	1013.291510	-477.195945	796.222122	1044.348184	-227.264416	616.948547	1107.449020	-384.740764	615.764445	1106.312999	-301.163670	783.492558	929.689023	-159.613838	901.680506	724.592570	-185.060066	686.304381	906.854862	-528.229779	710.075415	776.840198	-507.839063	581.836744	676.215415	-489.296940	946.442104	502.055561	-244.773302	848.022897	444.851052	-196.965983	533.998316	445.072494	-426.328688	432.653631	416.563629	-477.164910	639.950552	294.958286	-283.462814	838.457653	173.443070	-264.784955	232.120842	248.343232	-362.787340	375.556581	 74.111403	-375.331387	806.949048	1551.337856	-500.567697	736.559837	1547.607496	-169.946635	830.858702	1507.022436	-300.462053	708.117789	1580.645489	-364.470765	641.439552	1473.367230	-98.720722	556.893825	1425.562951	-142.333924	563.124343	1387.007916	-71.949782	507.285888	1306.760405	-46.314519	483.924340	1299.130226	-124.565679	804.879944	1455.387668	-606.511685	749.669882	1368.078797	-622.932803	815.661199	1349.008940	-662.008296	842.420645	1271.573091	-702.019925	788.229526	1221.023683	-672.046251	527.293038	1227.099622	-37.967800	655.153915	1070.157797	-79.011220	588.805130	1046.447744	-70.692258	927.480267	1256.099935	-609.791472	967.555192	1304.602691	-466.766547	984.150098	1238.645918	-477.797336	905.723083	842.972664	-179.082180	819.562561	345.156971	-255.037182	792.654798	163.687721	-182.999556	316.910134	 65.413508	-445.284982	410.054734	282.305166	-407.884747	
8	  0.080000	789.004865	1017.788646	-476.733969	798.039359	1050.572841	-229.174646	620.439134	1113.812649	-386.080585	618.653231	1113.173623	-303.079627	784.255714	936.422010	-160.967172	898.553473	727.966498	-185.915319	685.601259	913.119082	-529.545764	705.159477	782.573933	-509.493554	574.179510	686.048508	-490.012754	958.252921	501.710942	-243.310893	866.391760	434.146607	-196.175165	520.565223	455.709214	-428.144733	418.999064	430.145737	-479.754879	677.309578	262.361889	-283.563579	886.646700	161.798433	-263.619596	217.999482	272.257191	-367.086005	347.417549	 83.225932	-380.261499	807.428160	1558.842223	-495.761502	735.752696	1553.779889	-168.848796	830.369535	1514.119922	-298.082084	708.246661	1587.070748	-362.575348	639.533784	1481.759136	-98.329682	555.136086	1436.206905	-142.535403	559.784752	1397.190720	-71.802221	502.483399	1317.400174	-46.533347	480.341594	1309.972781	-125.500528	807.992751	1464.568085	-603.508813	752.956072	1377.456792	-621.777428	819.649946	1358.555391	-660.090807	847.509806	1281.044972	-700.093289	793.793683	1229.718713	-670.754889	522.082691	1237.642555	-38.005490	651.063011	1080.585683	-78.203844	584.751302	1056.783415	-70.355584	930.329370	1269.339371	-605.930776	966.106739	1320.326005	-462.728995	985.193727	1254.851893	-472.509115	904.322103	847.279987	-177.014716	849.806975	331.784167	-254.121294	841.687865	147.129935	-182.533162	284.440539	 78.261834	-446.689471	392.589359	295.786855	-411.866231	
9	  0.090000	791.144834	1021.869121	-476.341504	799.402905	1054.654888	-231.349305	623.489341	1119.841556	-387.988383	621.243404	1119.451574	-304.918550	783.345142	939.895048	-162.105719	894.099327	728.883251	-187.253666	685.509576	919.057248	-530.477368	702.657454	787.842378	-510.774574	570.246276	693.939716	-491.195874	967.958875	500.015861	-241.884745	884.109975	422.629178	-195.062453	509.889717	464.964021	-429.268500	408.152575	443.072895	-481.999352	716.335652	231.514277	-283.290576	934.280405	152.084426	-263.509475	202.482444	296.386381	-368.962488	319.391916	 96.988667	-385.161711	807.626736	1565.211123	-491.093424	735.338605	1558.686285	-167.517995	830.245208	1519.998602	-295.911667	708.243816	1592.315930	-360.541296	638.136408	1489.033176	-97.131520	553.918353	1445.093345	-142.335476	556.883832	1405.657269	-71.281136	498.294587	1326.161760	-46.381137	477.289182	1318.977896	-125.842249	810.425440	1472.907437	-600.618042	755.724619	1385.861960	-620.948886	822.847057	1367.227172	-658.742493	851.516270	1289.637088	-698.737495	798.120228	1237.626364	-670.111207	517.756777	1246.404270	-37.726704	648.146122	1089.688724	-76.877642	581.898409	1065.447009	-69.789280	932.021900	1280.941973	-602.946845	963.947047	1333.205525	-459.480890	985.064286	1268.339479	-468.235964	901.998940	849.075470	-175.370273	879.759930	319.087275	-253.365442	890.873778	132.108053	-182.586670	253.328170	 96.341745	-448.694521	375.400235	310.072770	-414.237404	
